HIERARCHY
ROOT Hips
{
	OFFSET -3.958830 18.904000 13.208200
	CHANNELS 6 Xposition Yposition Zposition Zrotation Yrotation Xrotation 
	JOINT LHipJoint
	{
		OFFSET 0.000000 0.000000 0.000000
		CHANNELS 3 Zrotation Yrotation Xrotation
		JOINT LeftUpLeg
		{
			OFFSET 1.800000 -1.400000 0.085000
			CHANNELS 3 Zrotation Yrotation Xrotation
			JOINT LeftLeg
			{
				OFFSET 2.215000 -6.000000 0.000000
				CHANNELS 3 Zrotation Yrotation Xrotation
				JOINT LeftFoot
				{
					OFFSET 2.500000 -6.900000 0.000000
					CHANNELS 3 Zrotation Yrotation Xrotation
					JOINT LeftToeBase
					{
						OFFSET 0.200000 -0.500000 1.950000
						CHANNELS 3 Zrotation Yrotation Xrotation
						End Site
						{
							OFFSET 0.000000 0.000000 0.000000
						}
					}
				}
			}
		}
	}
	JOINT RHipJoint
	{
		OFFSET 0.000000 0.000000 0.000000
		CHANNELS 3 Zrotation Yrotation Xrotation
		JOINT RightUpLeg
		{
			OFFSET -1.800000 -1.400000 0.085000
			CHANNELS 3 Zrotation Yrotation Xrotation
			JOINT RightLeg
			{
				OFFSET -2.215000 -6.000000 0.000000
				CHANNELS 3 Zrotation Yrotation Xrotation
				JOINT RightFoot
				{
					OFFSET -2.500000 -6.900000 0.000000
					CHANNELS 3 Zrotation Yrotation Xrotation
					JOINT RightToeBase
					{
						OFFSET -0.200000 -0.500000 1.950000
						CHANNELS 3 Zrotation Yrotation Xrotation
						End Site
						{
							OFFSET 0.000000 0.000000 0.000000
						}
					}
				}
			}
		}
	}
	JOINT LowerBack
	{
		OFFSET 0.000000 0.000000 0.000000
		CHANNELS 3 Zrotation Yrotation Xrotation
		JOINT Spine
		{
			OFFSET -0.087000 1.940000 -0.288900
			CHANNELS 3 Zrotation Yrotation Xrotation
			JOINT Spine1
			{
				OFFSET 0.000000 1.950000 0.060000
				CHANNELS 3 Zrotation Yrotation Xrotation
				JOINT Neck
				{
					OFFSET 0.000000 0.000000 0.000000
					CHANNELS 3 Zrotation Yrotation Xrotation
					JOINT Neck1
					{
						OFFSET 0.000000 1.600000 0.340000
						CHANNELS 3 Zrotation Yrotation Xrotation
						JOINT Head
						{
							OFFSET 0.000000 1.667000 -0.240000
							CHANNELS 3 Zrotation Yrotation Xrotation
							End Site
							{
								OFFSET 0.000000 0.000000 0.000000
							}
						}
					}
				}
				JOINT LeftShoulder
				{
					OFFSET 0.000000 0.000000 0.000000
					CHANNELS 3 Zrotation Yrotation Xrotation
					JOINT LeftArm
					{
						OFFSET 2.700000 1.550000 -0.730000
						CHANNELS 3 Zrotation Yrotation Xrotation
						JOINT LeftForeArm
						{
							OFFSET 5.450000 0.000000 0.000000
							CHANNELS 3 Zrotation Yrotation Xrotation
							JOINT LeftHand
							{
								OFFSET 3.450000 0.000000 0.000000
								CHANNELS 3 Zrotation Yrotation Xrotation
								JOINT LeftHandIndex1
								{
									OFFSET 0.750000 0.000000 0.000000
									CHANNELS 3 Zrotation Yrotation Xrotation
									End Site
									{
										OFFSET 0.000000 0.000000 0.000000
									}
								}
							}
						}
					}
				}
				JOINT RightShoulder
				{
					OFFSET 0.000000 0.000000 0.000000
					CHANNELS 3 Zrotation Yrotation Xrotation
					JOINT RightArm
					{
						OFFSET -2.700000 1.550000 -0.730000
						CHANNELS 3 Zrotation Yrotation Xrotation
						JOINT RightForeArm
						{
							OFFSET -5.450000 0.000000 0.000000
							CHANNELS 3 Zrotation Yrotation Xrotation
							JOINT RightHand
							{
								OFFSET -3.450000 0.000000 0.000000
								CHANNELS 3 Zrotation Yrotation Xrotation
								JOINT RightHandIndex1
								{
									OFFSET -0.750000 0.000000 0.000000
									CHANNELS 3 Zrotation Yrotation Xrotation
									End Site
									{
										OFFSET 0.000000 0.000000 0.000000
									}
								}
							}
						}
					}
				}
			}
		}
	}
}
MOTION
Frames: 9
Frame Time: 0.016667
-0.064110 17.456000 0.703340 -26.652461 39.278197 -24.960159 -15.433229 11.909470 1.658202 16.052147 -1.864677 -25.965140 4.588474 6.222326 35.408523 -0.731662 6.357909 2.200035 0.226180 -0.115580 -0.029570 18.624265 -7.253011 6.920068 -8.296444 25.335363 -63.848699 20.864343 -24.259048 69.043995 -2.541302 -12.765968 0.267372 0.090910 0.384440 0.091370 -4.623845 -1.909171 -9.656445 13.654552 -10.830060 56.110590 -8.657943 0.210019 7.214485 0.752243 -7.657400 -11.474460 -19.274758 -0.673474 46.314472 16.416500 -12.379720 -26.880400 -23.887755 -20.991332 3.174263 -19.840802 -6.535608 -10.900056 28.259584 -38.299138 -11.002836 -3.462429 2.416058 0.974920 -0.168770 0.062520 0.150100 22.557932 27.200111 10.181336 29.993323 7.336371 -16.601690 -20.098790 39.856293 -7.517340 1.654049 -0.929408 -0.459080 0.688160 0.354670 -0.153270 
-0.059730 17.441860 0.691130 -27.062450 39.087162 -25.061427 -15.428253 11.897912 1.660191 16.072451 -1.760319 -26.340930 5.050453 6.110841 35.621631 -0.719490 6.350569 2.207901 0.231040 -0.098270 -0.032150 18.630793 -7.257758 6.898583 -8.329524 25.661627 -63.365937 22.432810 -24.882018 68.262772 -2.576578 -12.805429 0.274153 0.098730 0.385220 0.067100 -4.631423 -1.887546 -9.653399 13.709573 -10.798413 56.343572 -8.644723 0.375912 7.306705 0.689846 -7.875769 -11.625429 -19.656917 -0.227318 45.948076 17.041740 -12.094030 -27.119230 -23.250542 -20.805836 3.363745 -20.535655 -6.241097 -10.777729 28.937985 -37.331445 -11.008351 -3.445763 2.405488 0.973810 -0.179120 0.062000 0.158860 22.057791 27.238927 10.123331 29.780867 7.516588 -16.478376 -20.516643 39.481189 -7.545733 1.663504 -0.921627 -0.464710 0.706250 0.342540 -0.148000 
-0.050030 17.442730 0.697350 -27.001136 39.267231 -25.090327 -15.430861 11.974032 1.673104 15.814142 -1.708421 -26.252944 5.251031 5.996451 35.459175 -0.718906 6.293212 2.236647 0.231110 -0.098030 -0.020700 18.601327 -7.365588 6.797126 -7.411911 25.404612 -61.167494 22.485742 -24.636918 67.622500 -2.557537 -12.648080 0.318633 0.094510 0.382730 0.060120 -4.615276 -1.871151 -9.616251 13.197232 -10.332139 56.427623 -8.605999 0.559926 7.051500 0.646141 -7.570981 -11.639498 -19.044269 -0.188681 46.331702 17.390400 -11.761090 -27.326310 -23.266298 -20.546905 3.466285 -20.466946 -5.674251 -10.374867 27.384082 -35.892227 -10.042577 -3.446647 2.400558 0.986080 -0.187570 0.073450 0.160760 22.143103 26.910995 10.070593 30.265958 7.160018 -16.281631 -19.259012 38.970059 -7.025548 1.672877 -0.907502 -0.470000 0.718050 0.335170 -0.151020 
-0.025580 17.451870 0.717510 -26.784312 39.757599 -25.114950 -15.437192 12.073683 1.697992 15.329301 -1.788613 -26.034466 5.440005 5.852724 35.433903 -0.729184 6.250486 2.245596 0.223740 -0.117470 -0.009000 18.556602 -7.510688 6.655354 -6.545153 24.768039 -58.548737 22.625950 -24.724865 67.307294 -2.555141 -12.610576 0.326113 0.082630 0.369730 0.062080 -4.598218 -1.858514 -9.573689 12.523147 -9.828306 56.146984 -8.573743 0.609421 6.405096 0.580373 -6.991588 -11.531477 -17.990881 -0.081367 47.385478 17.724620 -11.366090 -27.059930 -23.653872 -19.988383 3.549914 -20.348168 -4.725959 -9.709201 24.062208 -34.303466 -8.482582 -3.456711 2.411102 1.004700 -0.193040 0.080020 0.147090 22.617368 26.028811 9.869228 31.537971 6.551161 -15.765509 -17.176011 37.701322 -6.110383 1.690230 -0.889496 -0.476250 0.705970 0.339630 -0.167150 
0.003480 17.465470 0.755230 -26.103094 40.746172 -24.816147 -15.462355 12.240467 1.768698 14.358500 -2.044570 -25.816350 5.580752 5.706222 35.664198 -0.709329 6.230646 2.260623 0.195900 -0.163340 -0.014960 18.478428 -7.657844 6.479940 -5.729316 23.613209 -55.609100 21.956548 -24.539598 67.358326 -2.530327 -12.555855 0.337406 0.047140 0.365100 0.069040 -4.503567 -2.021355 -9.516884 11.233112 -8.941040 55.692629 -7.728156 0.469409 4.853257 0.298861 -6.763884 -11.263069 -17.894762 -0.042566 48.599770 17.756260 -11.632780 -26.240070 -24.860747 -18.814303 3.515680 -21.095784 -3.364436 -9.153419 21.325775 -32.927713 -7.277443 -3.468550 2.431190 1.011000 -0.193810 0.078500 0.136150 24.348765 24.755853 9.574152 32.561953 4.845706 -15.902041 -14.379403 37.969885 -5.250406 1.709461 -0.884733 -0.475780 0.682370 0.347910 -0.173400 
0.043880 17.475430 0.802530 -25.843841 41.356503 -24.614301 -15.467828 12.374261 1.796367 13.997597 -2.062498 -25.395369 5.495493 5.604567 34.947470 -0.726349 6.104642 2.312958 0.156780 -0.220390 -0.022010 18.425167 -7.831934 6.302507 -4.780233 22.570990 -52.818226 20.809966 -24.723943 68.529318 -2.556969 -12.704170 0.308124 0.010150 0.365320 0.062920 -4.479066 -2.068900 -9.460743 10.649204 -8.531083 54.572861 -7.389509 0.167203 3.170964 0.115970 -6.573391 -10.883859 -17.884034 0.392191 50.106943 17.720310 -11.574980 -25.459800 -25.379927 -16.852263 3.358644 -22.801126 -1.847230 -8.475543 18.477128 -30.924152 -6.050219 -3.489352 2.407996 1.030200 -0.193200 0.075150 0.119630 25.169304 22.632428 9.053937 35.230450 2.650860 -16.145808 -12.012683 38.045393 -4.542016 1.724283 -0.843212 -0.493370 0.678040 0.363910 -0.187890 
0.092070 17.484610 0.863910 -25.271386 41.806720 -23.974278 -15.474759 12.483993 1.868622 13.713500 -2.093890 -25.192913 5.016501 5.747201 34.595413 -0.737293 6.060091 2.325006 0.122510 -0.264880 -0.018760 18.371482 -8.007113 6.118821 -3.634569 21.578911 -49.955216 18.574677 -24.506688 70.669062 -2.588900 -12.887448 0.268657 -0.019800 0.352980 0.054500 -4.420899 -2.112493 -9.424632 9.641668 -7.710374 52.889879 -7.035161 0.024880 1.268047 0.053640 -5.880412 -10.524081 -16.793508 0.690325 52.310838 17.048840 -11.108720 -24.197860 -26.030301 -14.815152 3.134711 -24.034332 -0.075722 -7.642685 14.420089 -27.958665 -4.512747 -3.524715 2.377118 1.048260 -0.189540 0.076530 0.095270 25.884824 20.209938 8.388344 38.151789 0.651108 -15.768308 -9.635964 35.774803 -3.563237 1.762807 -0.791118 -0.508630 0.668530 0.377200 -0.210590 
0.148480 17.488990 0.937970 -24.372536 41.937562 -22.764623 -15.480056 12.623043 1.946656 13.193552 -2.114611 -24.994189 4.910827 5.736254 34.239663 -0.735745 5.989639 2.351401 0.094450 -0.327000 0.010400 18.310541 -8.231231 5.930309 -2.249396 20.530698 -46.895508 15.654079 -23.393629 72.434785 -2.565786 -12.851364 0.274307 -0.067560 0.328450 0.071790 -4.336742 -2.128959 -9.379075 8.396964 -6.471376 50.707526 -6.738766 0.154733 -1.491043 0.145916 -4.824435 -9.919865 -14.892043 0.338404 54.766054 15.677270 -10.822990 -22.294990 -27.198392 -12.064793 2.542869 -25.116150 2.139562 -7.200695 11.486312 -25.598839 -3.525506 -3.562737 2.370969 1.066560 -0.184060 0.084810 0.069630 26.775648 16.963693 7.534772 41.133723 -2.166816 -15.533136 -7.559091 33.110878 -2.682691 1.816442 -0.753464 -0.509380 0.627920 0.381120 -0.240980 
0.210790 17.498120 1.020560 -23.610234 41.789897 -21.611390 -15.475052 12.766288 2.018641 12.993570 -1.994025 -24.565222 4.461110 5.864474 33.586719 -0.736186 5.906087 2.391078 0.054620 -0.385440 0.025740 18.249932 -8.516351 5.706159 -0.978793 19.362144 -43.368195 13.441894 -22.107702 72.888850 -2.501015 -12.614576 0.344667 -0.112130 0.320090 0.065380 -4.277004 -2.045715 -9.316638 7.510844 -5.127493 48.158723 -6.587108 0.596627 -4.405102 0.274041 -3.699700 -9.349433 -12.822684 -0.165716 57.883910 14.695870 -10.696790 -20.232310 -27.831651 -8.926482 1.720271 -26.544985 4.114321 -6.987318 9.328918 -23.154949 -2.865555 -3.604611 2.312569 1.084310 -0.177520 0.090990 0.049150 27.090999 13.332006 6.629857 44.212042 -5.296471 -15.326500 -5.319816 29.592549 -1.831619 1.879190 -0.679129 -0.524030 0.621570 0.387090 -0.263020 
